<svg xmlns="http://www.w3.org/2000/svg" xmlns:xlink="http://www.w3.org/1999/xlink" id="Layer_1" data-name="Layer 1" viewBox="0 0 724.28 116.82">
  <defs>
    <style>
      .cls-1 {
        fill: #000000;
      }
    </style>
    <symbol id="logo" data-name="logo" viewBox="0 0 161.36 26">
      <path class="cls-1" d="M80.57,12.83H77.76V25.12h2.31c4.62,0,6.34-1.63,6.34-6.58,0-4.11-1.77-5.71-5.84-5.71ZM89,5.08l-5.22,7.75c3.65,1.05,6,3.11,6,6.46,0,4.07-3.48,6.29-9.73,6.29H74.71V.42h3.05v12h2.82L86.7,3C88,1,89,.34,90.68.34H92.9V.46C91.64,1.3,91,2.15,89,5.08Zm41.79-.71-9.2,21.21h-4v-.13a12.93,12.93,0,0,0,2.48-4V.34h.54V20.21L129.4,0h.34l8.64,23V.42h3.05V25.58h-2.68ZM102.6,1H99V13c2.27,0,5.08-.08,9.78-.46v1.47c-4.7-.38-7.51-.46-9.78-.46V25h3.28a24,24,0,0,0,7.68-1.3h0l0,1.84h-14V.42h14.38l.21,2.1h0A22.59,22.59,0,0,0,102.6,1Zm58.71,1.55A22.56,22.56,0,0,0,153.42,1h-3.6V13c2.26,0,5.07-.08,9.77-.46v1.47c-4.7-.38-7.51-.46-9.77-.46V25h3.27a23.91,23.91,0,0,0,7.68-1.3h0l-.06,1.84h-14V.42h14.38l.22,2.1ZM59.42.46c-6.8,0-7.55,6.33-7.55,12.54s.75,12.54,7.55,12.54S67,19.21,67,13,66.21.46,59.42.46Zm0,25.54c-6.63,0-11-5.49-11-13s4.32-13,11-13S70.36,5.49,70.36,13,66,26,59.42,26ZM33,.92H29V25.08h2.39c8.93,0,10.31-5.16,10.31-11.74C41.67,6.46,40.33.92,33,.92ZM31.69,25.58H25.91V.42h7c7.67,0,12.16,5.7,12.16,13S40.83,25.58,31.69,25.58ZM4.76,10,9.9,21.88,15,10ZM7.61,25.58v-.13a9.45,9.45,0,0,0,2-2.89L0,.42H.61l3.91,9H15.29l3.92-9h3.26L11.56,25.58H7.61Z"/>
    </symbol>
  </defs>
  <title>adore_me_logo_freelogovectors.net</title>
  <use width="161.36" height="26" transform="matrix(4.49, 0, 0, -4.49, 0, 116.82)" xlink:href="#logo"/>
</svg>